<svg xmlns="http://www.w3.org/2000/svg" viewBox="0 0 316.49 111.93"><defs><style>.d{fill:#00827b;}.e{fill:#39444c;}</style></defs><g id="a"></g><g id="b"><g id="c"><g><path class="e" d="M129,.96V110.96c0,.53,.43,.96,.96,.96s.96-.43,.96-.96V.96c0-.53-.43-.96-.96-.96s-.96,.43-.96,.96"></path><path class="e" d="M50.93,100.6c-1.45-.48-2.99-.94-4.62-1.37-1.62-.42-3.31-.8-5.09-1.13-1.76-.33-3.59-.6-5.49-.79-1.39-.14-2.81-.24-4.28-.3-1.45-.05-2.94-.06-4.46-.02-1.51,.04-3.06,.14-4.64,.3-1.57,.16-3.18,.38-4.82,.66,1.17,.6,2.38,1.16,3.65,1.67,1.29,.51,2.63,.99,4.03,1.4,1.41,.42,2.88,.79,4.4,1.1,1.53,.31,3.12,.57,4.76,.76,1.65,.2,3.31,.33,4.99,.39,1.7,.06,3.41,.06,5.13,0,1.73-.07,3.48-.2,5.23-.4,1.76-.19,3.52-.46,5.28-.77-1.25-.5-2.62-1-4.08-1.49Zm45.87-24.81c-2.72,1.47-5.61,3.2-8.56,5.24-2.97,2.05-6.02,4.42-9.03,7.15-3.05,2.78-6.1,5.94-9.02,9.57,3.57-1.4,7.04-3.05,10.34-4.9,3.3-1.84,6.42-3.89,9.35-6.1,2.9-2.19,5.57-4.54,8.01-7.01,2.4-2.43,4.55-4.98,6.42-7.61-2.26,.98-4.8,2.19-7.51,3.66ZM8.36,86.1c-.37-2.01-.89-4.08-1.61-6.12-.7-1.97-1.59-3.91-2.72-5.74-1.1-1.76-2.42-3.42-4.01-4.87-.07,2.02,.04,4.01,.35,5.96,.31,2.01,.83,3.96,1.54,5.85,.74,1.95,1.69,3.82,2.86,5.59,1.2,1.83,2.63,3.56,4.3,5.17-.12-1.8-.34-3.78-.72-5.84ZM112.96,46.33c-.04-1.17-.15-2.32-.33-3.43-.16-1.09-.39-2.17-.67-3.2-.28-1.02-.6-2.02-.98-2.99-.37-.96-.79-1.88-1.26-2.77-.52,1.33-1.03,2.91-1.44,4.69-.42,1.82-.75,3.86-.87,6.1-.12,2.29-.04,4.81,.37,7.52,.43,2.8,1.21,5.83,2.48,9.05,.5-1.27,.93-2.55,1.3-3.83,.36-1.26,.65-2.53,.88-3.78,.22-1.25,.37-2.48,.46-3.72,.09-1.22,.1-2.43,.05-3.63Zm-101.44-3.95c-.67,.8-1.31,1.62-1.93,2.45-.63,.83-1.24,1.69-1.82,2.55-.59,.88-1.15,1.77-1.69,2.68-.54,.92-1.05,1.84-1.51,2.75-.47,.93-.91,1.86-1.31,2.79-.41,.94-.77,1.88-1.1,2.81-.34,.95-.63,1.89-.89,2.84,1.12-1.33,2.35-2.85,3.58-4.52,1.22-1.65,2.44-3.43,3.59-5.3,1.12-1.83,2.17-3.74,3.05-5.67,.86-1.89,1.57-3.81,2.06-5.7-.7,.76-1.38,1.54-2.04,2.33ZM100.42,23.3c-1.6-1.17-3.32-2.22-5.15-3.14-1.77-.91-3.65-1.7-5.61-2.37-1.91-.66-3.9-1.21-5.96-1.65,.69,.74,1.58,1.59,2.7,2.48,1.14,.92,2.52,1.9,4.17,2.88,1.7,1.01,3.7,2.03,6.03,3,2.4,1,5.17,1.95,8.34,2.78-1.37-1.45-2.89-2.77-4.53-3.97Zm-64.5,.21c-1.94,.96-3.83,2-5.67,3.11-1.85,1.11-3.65,2.29-5.39,3.54-1.76,1.25-3.46,2.58-5.09,3.96,1.39-.6,2.99-1.33,4.73-2.19,1.74-.86,3.62-1.84,5.57-2.96,1.94-1.12,3.94-2.35,5.94-3.72,1.98-1.36,3.94-2.82,5.82-4.41-2.01,.82-3.99,1.72-5.92,2.68Zm17.94,17.44l.04-.1,.04-.1,.04-.1,.03-.1,.03-.1,.03-.1,.02-.1,.02-.1,53.98-8.99c-.09-.13-.18-.25-.27-.38-.09-.13-.18-.25-.28-.38-.09-.12-.18-.25-.28-.38-.09-.12-.18-.25-.28-.37l-53.29,8.83-.12-.14-.13-.14-.14-.12-.16-.12,27.37-22.39c-.16-.02-.31-.05-.48-.07-.16-.02-.32-.04-.48-.06-.16-.02-.32-.04-.48-.07-.16-.02-.32-.04-.48-.05l-27.42,22.05h-.62l-.12,.02h-.12l-.12,.03-3.38-18.39c-.16,.05-.31,.11-.47,.16-.16,.05-.31,.11-.47,.16l-.47,.16c-.16,.06-.31,.11-.47,.17l2.9,18.51-.23,.14-.22,.14-.22,.15-.21,.15-29.67-2.39c-.12,.11-.24,.22-.36,.34-.12,.11-.24,.22-.36,.34-.12,.11-.24,.23-.35,.34-.12,.11-.24,.23-.35,.35l29.62,2.75-.04,.1-.04,.1-.04,.1-.04,.1-.03,.1-.03,.1-.02,.1-.02,.09L.57,64.39c-.03,.15-.05,.3-.08,.46-.03,.16-.05,.31-.08,.46-.02,.15-.04,.31-.07,.46-.02,.15-.04,.3-.06,.46l45.2-23.29,.11,.15,.12,.14,.14,.13,.15,.13L12.05,94.5c.15,.12,.3,.23,.46,.35,.15,.11,.31,.23,.47,.34,.16,.11,.32,.22,.48,.34l.49,.33L47.97,44.18h.24l.13,.02h.26l.13-.02h.13l.13-.03,12.01,56.6c.28-.08,.57-.15,.85-.23,.28-.08,.57-.16,.85-.24,.28-.08,.56-.16,.85-.24,.28-.09,.56-.17,.85-.26l-12.92-56.43,.24-.14,.23-.15,.23-.16,.21-.16,54.68,25.12c.12-.2,.23-.41,.35-.61,.11-.21,.23-.41,.34-.61,.11-.2,.22-.41,.33-.61,.11-.21,.22-.41,.32-.61l-54.55-24.48Zm18.43-26.07c-1.05-.02-2.1-.01-3.17,.03-1.07,.03-2.14,.09-3.23,.17-1.08,.08-2.17,.19-3.27,.32-1.09,.14-2.17,.29-3.24,.47-1.07,.17-2.13,.37-3.18,.59-1.05,.22-2.09,.45-3.12,.71-1.03,.25-2.05,.53-3.06,.82,.71,.04,1.49,.07,2.35,.09,.87,.01,1.81,.01,2.83-.02,1.02-.03,2.12-.08,3.29-.16,1.18-.08,2.42-.2,3.74-.35,.96-.11,1.97-.24,3-.4,1.04-.16,2.11-.34,3.21-.55,1.11-.21,2.24-.44,3.41-.71s2.36-.56,3.58-.89c-1.03-.06-2.07-.11-3.13-.12Z"></path><g><path class="e" d="M148.37,21.66c0-1.75,.64-3.25,1.92-4.51,1.28-1.26,2.81-1.88,4.61-1.88s3.29,.63,4.56,1.9c1.27,1.27,1.91,2.79,1.91,4.57s-.64,3.3-1.92,4.55c-1.28,1.25-2.83,1.88-4.65,1.88-1.61,0-3.05-.56-4.32-1.67-1.41-1.23-2.11-2.84-2.11-4.83Zm1.89,.02c0,1.37,.46,2.5,1.39,3.39,.92,.89,1.98,1.33,3.18,1.33,1.3,0,2.41-.45,3.3-1.35,.9-.91,1.34-2.02,1.34-3.33s-.44-2.44-1.33-3.33c-.88-.9-1.97-1.35-3.27-1.35s-2.39,.45-3.28,1.35c-.89,.89-1.34,1.99-1.34,3.3Z"></path><path class="e" d="M167,27.93V14.65l9.07,9.49V15.5h1.88v13.19l-9.07-9.46v8.71h-1.88Z"></path><path class="e" d="M193.39,16.16v2.22c-1.08-.91-2.21-1.36-3.37-1.36-1.28,0-2.35,.46-3.23,1.38-.88,.91-1.32,2.03-1.32,3.35s.44,2.41,1.32,3.3c.88,.9,1.96,1.34,3.24,1.34,.66,0,1.22-.11,1.68-.32,.26-.11,.52-.25,.8-.43s.57-.4,.87-.66v2.26c-1.07,.61-2.2,.91-3.38,.91-1.78,0-3.29-.62-4.55-1.86-1.25-1.25-1.88-2.76-1.88-4.53,0-1.58,.52-3,1.57-4.24,1.29-1.52,2.96-2.28,5-2.28,1.12,0,2.2,.3,3.24,.91Z"></path><path class="e" d="M152.42,35.26v10.67h-1.88v-10.67h-2.86v-1.76h7.59v1.76h-2.85Z"></path><path class="e" d="M167.11,35.26h-4.99v2.99h4.84v1.76h-4.84v4.16h4.99v1.76h-6.86v-12.43h6.86v1.76Z"></path><path class="e" d="M179.11,35.26h-4.33v2.99h4.18v1.76h-4.18v5.92h-1.88v-12.43h6.21v1.76Z"></path><path class="e" d="M193.76,34.16v2.22c-1.08-.91-2.21-1.36-3.37-1.36-1.28,0-2.35,.46-3.23,1.38-.88,.91-1.32,2.03-1.32,3.35s.44,2.41,1.32,3.3c.88,.9,1.96,1.34,3.24,1.34,.66,0,1.22-.11,1.68-.32,.26-.11,.52-.25,.8-.43s.57-.4,.87-.66v2.26c-1.07,.61-2.2,.91-3.38,.91-1.78,0-3.29-.62-4.55-1.86-1.25-1.25-1.88-2.76-1.88-4.53,0-1.58,.52-3,1.57-4.24,1.29-1.52,2.96-2.28,5-2.28,1.12,0,2.2,.3,3.24,.91Z"></path><path class="e" d="M207.01,42.91h-5.32l-1.39,3.02h-2.02l6.15-13.22,5.94,13.22h-2.05l-1.3-3.02Zm-.77-1.76l-1.84-4.23-1.93,4.23h3.78Z"></path><path class="d" d="M153.2,58.63l3.85,5.3h-2.3l-3.55-5.09h-.34v5.09h-1.88v-12.43h2.2c1.64,0,2.83,.31,3.56,.93,.81,.69,1.21,1.59,1.21,2.72,0,.88-.25,1.64-.76,2.27-.5,.63-1.17,1.04-2,1.22Zm-2.34-1.43h.6c1.78,0,2.67-.68,2.67-2.04,0-1.27-.86-1.91-2.59-1.91h-.67v3.95Z"></path><path class="d" d="M168.99,53.26h-4.99v2.99h4.84v1.76h-4.84v4.16h4.99v1.76h-6.86v-12.43h6.86v1.76Z"></path><path class="d" d="M183.8,52.16v2.22c-1.08-.91-2.21-1.36-3.37-1.36-1.28,0-2.35,.46-3.23,1.38-.88,.91-1.32,2.03-1.32,3.35s.44,2.41,1.32,3.3c.88,.9,1.96,1.34,3.24,1.34,.66,0,1.22-.11,1.68-.32,.26-.11,.52-.25,.8-.43s.57-.4,.87-.66v2.26c-1.07,.61-2.2,.91-3.38,.91-1.78,0-3.29-.62-4.55-1.86-1.25-1.25-1.88-2.76-1.88-4.53,0-1.58,.52-3,1.57-4.24,1.29-1.52,2.96-2.28,5-2.28,1.12,0,2.2,.3,3.24,.91Z"></path><path class="d" d="M188.62,57.66c0-1.75,.64-3.25,1.92-4.51,1.28-1.26,2.81-1.88,4.61-1.88s3.29,.63,4.56,1.9c1.27,1.27,1.91,2.79,1.91,4.57s-.64,3.3-1.92,4.55c-1.28,1.25-2.83,1.88-4.65,1.88-1.61,0-3.05-.56-4.32-1.67-1.41-1.23-2.11-2.84-2.11-4.83Zm1.89,.02c0,1.38,.46,2.5,1.39,3.39,.92,.89,1.98,1.33,3.18,1.33,1.3,0,2.41-.45,3.3-1.35,.9-.91,1.34-2.02,1.34-3.33s-.44-2.44-1.33-3.33c-.88-.9-1.97-1.35-3.27-1.35s-2.39,.45-3.28,1.35c-.89,.89-1.34,1.99-1.34,3.3Z"></path><path class="d" d="M213.64,57.46h5.14v.41c0,.93-.11,1.76-.33,2.48-.21,.67-.58,1.29-1.09,1.87-1.15,1.3-2.62,1.95-4.41,1.95s-3.23-.63-4.47-1.88c-1.24-1.26-1.86-2.78-1.86-4.54s.63-3.33,1.89-4.59c1.26-1.26,2.8-1.89,4.61-1.89,.97,0,1.88,.2,2.72,.6,.81,.4,1.6,1.04,2.38,1.93l-1.34,1.28c-1.02-1.36-2.26-2.04-3.73-2.04-1.32,0-2.42,.45-3.31,1.36-.89,.89-1.34,2.01-1.34,3.35s.5,2.53,1.49,3.42c.93,.83,1.94,1.25,3.02,1.25,.92,0,1.75-.31,2.49-.93,.74-.63,1.15-1.38,1.23-2.25h-3.1v-1.76Z"></path><path class="d" d="M224.39,63.93v-13.28l9.07,9.49v-8.64h1.88v13.19l-9.07-9.46v8.71h-1.88Z"></path><path class="d" d="M243.49,51.5v12.43h-1.88v-12.43h1.88Z"></path><path class="d" d="M251.75,62.17h5.97v1.76h-9.05l6.1-10.67h-5.11v-1.76h8.19l-6.1,10.67Z"></path><path class="d" d="M269.81,53.26h-4.99v2.99h4.84v1.76h-4.84v4.16h4.99v1.76h-6.86v-12.43h6.86v1.76Z"></path><path class="d" d="M275.59,63.93v-12.43h2.61c1.25,0,2.24,.12,2.96,.37,.78,.24,1.48,.65,2.12,1.23,1.28,1.17,1.92,2.71,1.92,4.61s-.67,3.46-2.01,4.64c-.67,.59-1.37,1-2.11,1.23-.69,.23-1.66,.35-2.92,.35h-2.58Zm1.88-1.76h.85c.84,0,1.54-.09,2.1-.27,.56-.19,1.06-.49,1.51-.89,.92-.84,1.38-1.94,1.38-3.29s-.46-2.47-1.37-3.32c-.82-.76-2.03-1.14-3.63-1.14h-.85v8.91Z"></path><path class="d" d="M158.18,70.16v2.22c-1.08-.91-2.21-1.36-3.37-1.36-1.28,0-2.35,.46-3.23,1.38-.88,.91-1.32,2.03-1.32,3.35s.44,2.41,1.32,3.3c.88,.9,1.96,1.34,3.24,1.34,.66,0,1.22-.11,1.68-.32,.26-.11,.52-.25,.8-.43s.57-.4,.87-.66v2.26c-1.07,.61-2.2,.91-3.38,.91-1.78,0-3.29-.62-4.55-1.86-1.25-1.25-1.88-2.76-1.88-4.53,0-1.58,.52-3,1.57-4.24,1.29-1.52,2.96-2.28,5-2.28,1.12,0,2.2,.3,3.24,.91Z"></path><path class="d" d="M163,75.66c0-1.75,.64-3.25,1.92-4.51,1.28-1.26,2.81-1.88,4.61-1.88s3.29,.63,4.56,1.9c1.27,1.27,1.91,2.79,1.91,4.57s-.64,3.3-1.92,4.55c-1.28,1.25-2.83,1.88-4.65,1.88-1.61,0-3.05-.56-4.32-1.67-1.41-1.23-2.11-2.84-2.11-4.83Zm1.89,.02c0,1.38,.46,2.5,1.39,3.39,.92,.89,1.98,1.33,3.18,1.33,1.3,0,2.41-.45,3.3-1.35,.9-.91,1.34-2.02,1.34-3.33s-.44-2.44-1.33-3.33c-.88-.9-1.97-1.35-3.27-1.35s-2.39,.45-3.28,1.35c-.89,.89-1.34,1.99-1.34,3.3Z"></path><path class="d" d="M181.01,75.66c0-1.75,.64-3.25,1.92-4.51,1.28-1.26,2.81-1.88,4.61-1.88s3.29,.63,4.56,1.9c1.27,1.27,1.91,2.79,1.91,4.57s-.64,3.3-1.92,4.55c-1.28,1.25-2.83,1.88-4.65,1.88-1.61,0-3.05-.56-4.32-1.67-1.41-1.23-2.11-2.84-2.11-4.83Zm1.89,.02c0,1.38,.46,2.5,1.39,3.39,.92,.89,1.98,1.33,3.18,1.33,1.3,0,2.41-.45,3.3-1.35,.9-.91,1.34-2.02,1.34-3.33s-.44-2.44-1.33-3.33c-.88-.9-1.97-1.35-3.27-1.35s-2.39,.45-3.28,1.35c-.89,.89-1.34,1.99-1.34,3.3Z"></path><path class="d" d="M203.86,76.63l3.85,5.3h-2.3l-3.55-5.09h-.34v5.09h-1.88v-12.43h2.2c1.64,0,2.83,.31,3.56,.93,.81,.69,1.21,1.59,1.21,2.72,0,.88-.25,1.64-.76,2.27-.5,.63-1.17,1.04-2,1.22Zm-2.34-1.43h.6c1.78,0,2.67-.68,2.67-2.04,0-1.27-.86-1.91-2.59-1.91h-.67v3.95Z"></path><path class="d" d="M212.78,81.93v-12.43h2.61c1.25,0,2.24,.12,2.96,.37,.78,.24,1.48,.65,2.12,1.23,1.28,1.17,1.92,2.71,1.92,4.61s-.67,3.46-2.01,4.64c-.67,.59-1.37,1-2.11,1.23-.69,.23-1.66,.35-2.92,.35h-2.58Zm1.88-1.76h.85c.84,0,1.54-.09,2.1-.27,.56-.19,1.06-.49,1.51-.89,.92-.84,1.39-1.94,1.39-3.29s-.46-2.47-1.37-3.32c-.82-.76-2.03-1.14-3.63-1.14h-.85v8.91Z"></path><path class="d" d="M229.94,69.5v12.43h-1.88v-12.43h1.88Z"></path><path class="d" d="M236.23,81.93v-13.28l9.07,9.49v-8.64h1.88v13.19l-9.07-9.46v8.71h-1.88Z"></path><path class="d" d="M260.83,78.91h-5.32l-1.39,3.02h-2.02l6.15-13.22,5.94,13.22h-2.05l-1.31-3.02Zm-.77-1.76l-1.84-4.23-1.93,4.23h3.78Z"></path><path class="d" d="M271.75,71.26v10.67h-1.88v-10.67h-2.86v-1.76h7.59v1.76h-2.85Z"></path><path class="d" d="M281.46,69.5v12.43h-1.88v-12.43h1.88Z"></path><path class="d" d="M287.75,81.93v-13.28l9.07,9.49v-8.64h1.88v13.19l-9.07-9.46v8.71h-1.88Z"></path><path class="d" d="M311.35,75.46h5.14v.41c0,.93-.11,1.76-.33,2.48-.21,.67-.58,1.29-1.09,1.87-1.15,1.3-2.62,1.95-4.41,1.95s-3.23-.63-4.47-1.88c-1.24-1.26-1.86-2.78-1.86-4.54s.63-3.33,1.89-4.59c1.26-1.26,2.8-1.89,4.61-1.89,.97,0,1.88,.2,2.72,.6,.81,.4,1.6,1.04,2.38,1.93l-1.34,1.28c-1.02-1.36-2.26-2.04-3.73-2.04-1.32,0-2.42,.45-3.31,1.36-.89,.89-1.34,2.01-1.34,3.35s.5,2.53,1.49,3.42c.93,.83,1.94,1.25,3.02,1.25,.92,0,1.75-.31,2.49-.93,.74-.63,1.15-1.38,1.23-2.25h-3.1v-1.76Z"></path><path class="d" d="M155.85,89.26h-4.99v2.99h4.84v1.76h-4.84v4.16h4.99v1.76h-6.86v-12.43h6.86v1.76Z"></path><path class="d" d="M161.63,99.93v-13.28l9.07,9.49v-8.64h1.88v13.19l-9.07-9.46v8.71h-1.88Z"></path><path class="d" d="M182.29,89.26v10.67h-1.88v-10.67h-2.86v-1.76h7.59v1.76h-2.85Z"></path><path class="d" d="M192,87.5v12.43h-1.88v-12.43h1.88Z"></path><path class="d" d="M201.72,89.26v10.67h-1.88v-10.67h-2.86v-1.76h7.59v1.76h-2.85Z"></path><path class="d" d="M212.59,94.56l-4.06-7.06h2.16l2.84,4.97,2.85-4.97h2.16l-4.07,7.06v5.37h-1.88v-5.37Z"></path></g></g></g></g></svg>